<svg width="620" height="360" viewBox="0 0 620 360" fill="none" xmlns="http://www.w3.org/2000/svg" role="img" aria-labelledby="title desc">
  <title id="title">Graphite arquitetura e construcao</title>
  <desc id="desc">Logo da Graphite com simbolo laranja e texto cinza.</desc>
  <rect width="620" height="360" fill="white"/>
  <g transform="translate(248 18)">
    <path d="M101.2 0C45.3 9.8 0 58.9 0 120.5c0 62.9 47.6 108.7 86.7 149.3l8.8 9.2 9-9.1c36.8-37.2 75.5-77.8 75.5-126.7 0-32.5-12-61.2-35.7-85.3l-61.7 61.8 35.5 35.5-22 54.4-58.2-89.1 63.3-63.4V0Z" fill="#F9A52C"/>
    <path d="M101.2 0v49.7c-37.4 3.9-66.4 34.7-66.4 72.3 0 29.4 17.8 55.3 39.9 81.4L58.1 229C24.9 194 0 161.1 0 120.5 0 58.9 45.3 9.8 101.2 0Z" fill="#F9A52C"/>
  </g>
  <text x="310" y="304" text-anchor="middle" font-family="Arial, Helvetica, sans-serif" font-size="76" font-weight="300" letter-spacing="10" fill="#5E5E61">GRAPHITE</text>
  <text x="310" y="346" text-anchor="middle" font-family="Arial, Helvetica, sans-serif" font-size="27" font-weight="300" letter-spacing="10" fill="#606064">arquitetura e construcao</text>
</svg>
